<?xml version="1.0" encoding="utf-8"?>
<!-- Generator: Adobe Illustrator 16.0.0, SVG Export Plug-In . SVG Version: 6.00 Build 0)  -->
<!DOCTYPE svg PUBLIC "-//W3C//DTD SVG 1.1//EN" "http://www.w3.org/Graphics/SVG/1.1/DTD/svg11.dtd">
<svg version="1.1" id="Layer_1" xmlns="http://www.w3.org/2000/svg" xmlns:xlink="http://www.w3.org/1999/xlink" x="0px" y="0px"
	 width="100px" height="100px" viewBox="0 0 100 100" enable-background="new 0 0 100 100" xml:space="preserve">
<path id="Fill-32" fill="#8637cc" d="M86.211,27.577c-0.004,10.454-4.057,19.847-10.619,26.692
	c-6.58,6.838-15.587,11.035-25.594,11.045c-10.007-0.01-19.014-4.207-25.59-11.045c-6.564-6.845-10.614-16.238-10.617-26.692
	c0-3.88-3.036-7.031-6.784-7.031c-3.746,0-6.786,3.15-6.786,7.031C0.219,41.852,5.796,54.84,14.789,64.195
	c8.985,9.365,21.476,15.18,35.208,15.18s26.226-5.814,35.21-15.18c8.993-9.355,14.57-22.344,14.57-36.618
	c0-3.88-3.035-7.031-6.788-7.031C89.243,20.546,86.211,23.697,86.211,27.577"/>
</svg>
