<?xml version="1.0" encoding="utf-8"?>
<!-- Generator: Adobe Illustrator 16.0.0, SVG Export Plug-In . SVG Version: 6.00 Build 0)  -->
<!DOCTYPE svg PUBLIC "-//W3C//DTD SVG 1.1//EN" "http://www.w3.org/Graphics/SVG/1.1/DTD/svg11.dtd">
<svg version="1.1" id="Layer_1" xmlns="http://www.w3.org/2000/svg" xmlns:xlink="http://www.w3.org/1999/xlink" x="0px" y="0px"
	 width="100px" height="100px" viewBox="0 0 100 100" enable-background="new 0 0 100 100" xml:space="preserve">
<g>
	<path fill="#8471FA" d="M91.685,23.985c-4.654-7.396-11.018-13.2-18.234-17.091C66.231,2.996,58.178,0.967,50,0.967
		C41.06,0.956,31.93,3.423,23.835,8.517l-0.021,0.012c-7.39,4.645-13.178,11.026-17.065,18.234
		C2.86,33.976,1.137,42.033,1.137,50.208C1.125,59.148,4,68.289,9,76.385v-0.023c5,7.412,10.715,13.2,17.937,17.098
		c7.219,3.898,15.119,5.927,23.3,5.927c8.951,0,17.993-2.456,26.087-7.562c7.389-4.633,13.15-11.008,17.037-18.217
		c3.898-7.219,5.909-15.271,5.909-23.441C99.271,41.22,96.787,32.088,91.685,23.985z M68.634,60.257
		c-1.676,3.098-4.102,5.778-7.336,7.818c-3.525,2.211-7.347,3.235-11.213,3.247c-3.524,0-7.027-0.888-10.125-2.563
		c-3.096-1.677-5.766-4.102-7.806-7.326l-0.01-0.011c-2.221-3.536-3.236-7.358-3.247-11.213c0-3.514,0.887-7.021,2.563-10.119
		c1.666-3.097,4.101-5.782,7.314-7.812l-0.01,0.006c3.545-2.221,7.379-3.241,11.235-3.251c3.523-0.006,7.026,0.887,10.113,2.551
		c3.086,1.677,5.777,4.101,7.807,7.337l0.01,0.01c2.223,3.547,3.246,7.379,3.258,11.235C71.187,53.679,70.3,57.171,68.634,60.257z"
		/>
	<polygon fill="#8471FA" points="91.68,23.975 91.685,23.985 91.69,23.991 	"/>
</g>
</svg>
