<?xml version="1.0" encoding="utf-8"?>
<!-- Generator: Adobe Illustrator 16.0.0, SVG Export Plug-In . SVG Version: 6.00 Build 0)  -->
<!DOCTYPE svg PUBLIC "-//W3C//DTD SVG 1.1//EN" "http://www.w3.org/Graphics/SVG/1.1/DTD/svg11.dtd">
<svg version="1.1" id="Layer_1" xmlns="http://www.w3.org/2000/svg" xmlns:xlink="http://www.w3.org/1999/xlink" x="0px" y="0px"
	 width="100px" height="100px" viewBox="0 0 100 100" enable-background="new 0 0 100 100" xml:space="preserve">
<path fill="#8471FA" d="M85.971,37H62V14.03c0-6.883-5.616-12.463-12.5-12.463c-6.883,0-12.5,5.58-12.5,12.463V37H13.963
	C7.08,37,1.5,42.616,1.5,49.5C1.5,56.383,7.08,62,13.963,62H37v24.037C37,92.92,42.617,98.5,49.5,98.5
	c6.884,0,12.5-5.58,12.5-12.463V62h23.971c6.883,0,12.463-5.617,12.463-12.5C98.434,42.616,92.854,37,85.971,37z"/>
</svg>
