<svg xmlns="http://www.w3.org/2000/svg" width="32" height="32" viewBox="0 0 32 32">
    <g fill="none" fill-rule="evenodd">
        <path fill="#FF838B" d="M27.23 4.672c6.23 6.23 6.23 16.33 0 22.559-6.229 6.229-16.329 6.229-22.558 0-6.23-6.23-6.23-16.33 0-22.559 6.23-6.23 16.33-6.23 22.559 0"/>
        <path fill="#FFF" d="M17.313 16.455a3.326 3.326 0 0 1-.858.858 3.364 3.364 0 0 1-4.29-5.148 3.364 3.364 0 0 1 5.148 4.29m4.453 4.178l-3.493-3.493a4.545 4.545 0 0 0-6.943-5.81 4.543 4.543 0 0 0 5.81 6.943l3.493 3.492a.8.8 0 0 0 1.133-1.132"/>
    </g>
</svg>
